<svg width="35" height="56" viewBox="0 0 35 56" fill="none" xmlns="http://www.w3.org/2000/svg">
<path d="M29.75 0H5.25C2.35156 0 0 2.35156 0 5.25V50.75C0 53.6484 2.35156 56 5.25 56H29.75C32.6484 56 35 53.6484 35 50.75V5.25C35 2.35156 32.6484 0 29.75 0ZM17.5 52.5C15.5641 52.5 14 50.9359 14 49C14 47.0641 15.5641 45.5 17.5 45.5C19.4359 45.5 21 47.0641 21 49C21 50.9359 19.4359 52.5 17.5 52.5ZM29.75 40.6875C29.75 41.4094 29.1594 42 28.4375 42H6.5625C5.84062 42 5.25 41.4094 5.25 40.6875V6.5625C5.25 5.84062 5.84062 5.25 6.5625 5.25H28.4375C29.1594 5.25 29.75 5.84062 29.75 6.5625V40.6875Z" fill="#14213D"/>
</svg>
