<svg width="43" height="43" viewBox="0 0 43 43" fill="none" xmlns="http://www.w3.org/2000/svg">
<path d="M10.75 20.7953V32.25H22.2047L19.8158 29.8611H13.1389V23.1842L10.75 20.7953Z" fill="white"/>
<path d="M41.6503 38.5686L38.2223 35.0927V38.2222H4.77783V33.2652H7.16671V31.3541H4.77783V23.4111H7.16671V21.4999H4.77783V13.8555H7.16671V11.9444H4.77783V5.26744L23.8173 24.1994V20.8311L4.43144 1.54077C4.26437 1.37232 4.05092 1.25744 3.81831 1.21077C3.58569 1.16411 3.34445 1.18777 3.12533 1.27875C2.90622 1.36973 2.71916 1.52389 2.58801 1.7216C2.45686 1.9193 2.38756 2.15158 2.38894 2.38883V39.4166C2.38894 39.7334 2.51478 40.0372 2.73878 40.2612C2.96278 40.4852 3.26659 40.6111 3.58338 40.6111H40.8023C41.0395 40.6124 41.2718 40.5431 41.4695 40.412C41.6672 40.2808 41.8214 40.0938 41.9124 39.8747C42.0033 39.6555 42.027 39.4143 41.9803 39.1817C41.9337 38.9491 41.8188 38.7356 41.6503 38.5686Z" fill="white"/>
<path d="M28.6667 35.8334H33.4445C34.0781 35.8334 34.6857 35.5817 35.1337 35.1337C35.5817 34.6857 35.8334 34.0781 35.8334 33.4445V10.3917L33.0862 5.33921C32.8737 4.9711 32.5669 4.66635 32.1973 4.45639C31.8278 4.24642 31.4089 4.13885 30.9839 4.14476C30.5493 4.14821 30.1239 4.27016 29.7535 4.49747C29.383 4.72479 29.0816 5.04885 28.8817 5.43476L26.2778 10.4156V33.4445C26.2778 34.0781 26.5295 34.6857 26.9775 35.1337C27.4255 35.5817 28.0331 35.8334 28.6667 35.8334ZM28.6667 10.9889L30.9839 6.48587L33.4445 11.0009V28.6667H28.6667V10.9889ZM28.6667 30.6136H33.4445V33.5281H28.6667V30.6136Z" fill="white"/>
</svg>
