<svg width="50" height="50" viewBox="0 0 50 50" fill="none" xmlns="http://www.w3.org/2000/svg">
<path d="M0 8.33333C0 6.1232 0.877973 4.00358 2.44078 2.44078C4.00358 0.877973 6.1232 0 8.33333 0H41.6667C43.8768 0 45.9964 0.877973 47.5592 2.44078C49.122 4.00358 50 6.1232 50 8.33333V33.3333C50 35.5435 49.122 37.6631 47.5592 39.2259C45.9964 40.7887 43.8768 41.6667 41.6667 41.6667H33.3333V43.75C33.3333 44.3025 33.5528 44.8324 33.9435 45.2231C34.3342 45.6138 34.8641 45.8333 35.4167 45.8333H37.5C38.0525 45.8333 38.5824 46.0528 38.9731 46.4435C39.3638 46.8342 39.5833 47.3641 39.5833 47.9167C39.5833 48.4692 39.3638 48.9991 38.9731 49.3898C38.5824 49.7805 38.0525 50 37.5 50H12.5C11.9475 50 11.4176 49.7805 11.0269 49.3898C10.6362 48.9991 10.4167 48.4692 10.4167 47.9167C10.4167 47.3641 10.6362 46.8342 11.0269 46.4435C11.4176 46.0528 11.9475 45.8333 12.5 45.8333H14.5833C15.1359 45.8333 15.6658 45.6138 16.0565 45.2231C16.4472 44.8324 16.6667 44.3025 16.6667 43.75V41.6667H8.33333C6.1232 41.6667 4.00358 40.7887 2.44078 39.2259C0.877973 37.6631 0 35.5435 0 33.3333V8.33333ZM29.5208 45.8333C29.2917 45.1812 29.1667 44.4792 29.1667 43.75V41.6667H20.8333V43.75C20.8333 44.4792 20.7083 45.1812 20.4792 45.8333H29.5208ZM41.6667 37.5C42.7717 37.5 43.8315 37.061 44.6129 36.2796C45.3943 35.4982 45.8333 34.4384 45.8333 33.3333H4.16667C4.16667 34.4384 4.60565 35.4982 5.38705 36.2796C6.16846 37.061 7.22826 37.5 8.33333 37.5H41.6667ZM45.8333 8.33333C45.8333 7.22826 45.3943 6.16846 44.6129 5.38705C43.8315 4.60565 42.7717 4.16667 41.6667 4.16667H8.33333C7.22826 4.16667 6.16846 4.60565 5.38705 5.38705C4.60565 6.16846 4.16667 7.22826 4.16667 8.33333V29.1667H45.8333V8.33333Z" fill="white"/>
</svg>
