<svg width="50" height="50" viewBox="0 0 50 50" fill="none" xmlns="http://www.w3.org/2000/svg">
<path d="M22.9166 16.6666H27.0833V18.75H22.9166V16.6666Z" fill="#14213D"/>
<path d="M22.9166 8.33337H27.0833V10.4167H22.9166V8.33337Z" fill="#14213D"/>
<path d="M22.9166 20.8334H27.0833V22.9167H22.9166V20.8334Z" fill="#14213D"/>
<path d="M43.75 25V18.75C37.3987 18.7487 31.2452 20.9585 26.3458 25H23.6541C18.7547 20.9585 12.6012 18.7487 6.24996 18.75V25C5.69743 25 5.16752 25.2195 4.77682 25.6102C4.38612 26.0009 4.16663 26.5308 4.16663 27.0833V31.25C4.16663 31.8025 4.38612 32.3324 4.77682 32.7231C5.16752 33.1138 5.69743 33.3333 6.24996 33.3333V41.6667C13.2126 41.6603 19.9165 44.3046 25 49.0625C30.0887 44.3131 36.7892 41.6701 43.75 41.6667V33.3333C44.3025 33.3333 44.8324 33.1138 45.2231 32.7231C45.6138 32.3324 45.8333 31.8025 45.8333 31.25V27.0833C45.8333 26.5308 45.6138 26.0009 45.2231 25.6102C44.8324 25.2195 44.3025 25 43.75 25Z" fill="#14213D"/>
<path d="M18.75 10.4167C19.9006 10.4167 20.8333 9.48393 20.8333 8.33333C20.8333 7.18274 19.9006 6.25 18.75 6.25C17.5994 6.25 16.6666 7.18274 16.6666 8.33333C16.6666 9.48393 17.5994 10.4167 18.75 10.4167Z" fill="#14213D"/>
<path d="M31.25 10.4167C32.4006 10.4167 33.3333 9.48393 33.3333 8.33333C33.3333 7.18274 32.4006 6.25 31.25 6.25C30.0994 6.25 29.1666 7.18274 29.1666 8.33333C29.1666 9.48393 30.0994 10.4167 31.25 10.4167Z" fill="#14213D"/>
<path d="M33.3333 16.6667H16.6666C15.0095 16.665 13.4208 16.006 12.249 14.8343C11.0773 13.6625 10.4183 12.0738 10.4166 10.4167V6.25C10.4183 4.59291 11.0773 3.00415 12.249 1.83241C13.4208 0.660666 15.0095 0.00165461 16.6666 0L33.3333 0C34.9904 0.00165461 36.5791 0.660666 37.7509 1.83241C38.9226 3.00415 39.5816 4.59291 39.5833 6.25V10.4167C39.5816 12.0738 38.9226 13.6625 37.7509 14.8343C36.5791 16.006 34.9904 16.665 33.3333 16.6667ZM16.6666 4.16667C16.1143 4.16722 15.5847 4.38689 15.1941 4.77747C14.8035 5.16805 14.5838 5.69764 14.5833 6.25V10.4167C14.5838 10.969 14.8035 11.4986 15.1941 11.8892C15.5847 12.2798 16.1143 12.4994 16.6666 12.5H33.3333C33.8857 12.4994 34.4152 12.2798 34.8058 11.8892C35.1964 11.4986 35.4161 10.969 35.4166 10.4167V6.25C35.4161 5.69764 35.1964 5.16805 34.8058 4.77747C34.4152 4.38689 33.8857 4.16722 33.3333 4.16667H16.6666Z" fill="#14213D"/>
</svg>
