<svg width="36" height="46" viewBox="0 0 36 46" fill="none" xmlns="http://www.w3.org/2000/svg">
<path d="M14.309 4.28887C14.4967 1.55299 17.0576 -0.562556 19.8178 0.133848L20.5714 0.326969C21.9082 0.666393 23.0948 1.66126 23.4932 3.15063C24.1284 5.5383 25.0321 10.498 23.6722 16.3472C24.0974 16.2877 24.5239 16.2379 24.9513 16.198C27.0099 16.0078 29.77 15.9873 32.2155 16.8125C33.7111 17.3187 35.0854 18.8051 35.6801 20.5373C36.2114 22.094 36.1421 23.9374 35.0045 25.6082C35.172 25.9564 35.3019 26.3163 35.403 26.6704C35.6253 27.4604 35.7292 28.3295 35.7292 29.1751C35.7292 30.0207 35.6253 30.8898 35.403 31.6798C35.2904 32.0748 35.1431 32.4786 34.941 32.8619C35.429 33.9943 35.25 35.2584 34.9324 36.2211C34.6072 37.1716 34.1313 38.0621 33.5234 38.8575C33.6793 39.3022 33.7428 39.7704 33.7428 40.2181C33.7428 41.1105 33.4859 42.0469 33.0124 42.8867C32.048 44.6013 30.1338 46 27.4285 46H17.3233C15.5765 46 14.2339 45.763 13.0906 45.3621C12.1075 44.9983 11.168 44.5232 10.29 43.9459L10.1514 43.8581C8.69628 42.9598 7.26711 42.0761 4.18068 41.7455C1.96908 41.5056 0 39.6972 0 37.2218V25.5175C0 23.0303 1.97774 21.3274 3.91795 20.7919C6.36919 20.1131 8.46241 18.4891 10.0735 16.6661C11.6903 14.8315 12.7124 12.9208 13.0733 11.8703C13.6478 10.1878 14.1011 7.36709 14.309 4.29179V4.28887Z" fill="white"/>
</svg>
