<svg width="45" height="39" viewBox="0 0 45 39" fill="none" xmlns="http://www.w3.org/2000/svg">
<path d="M41.7857 0C42.606 0 43.3468 0.33431 44.0081 1.00293C44.6694 1.67155 45 2.42057 45 3.25V16.25C45 17.1302 44.6819 17.8919 44.0458 18.5352C43.4096 19.1784 42.6562 19.5 41.7857 19.5H38.5714V29.25L28.8281 19.5H19.2857C18.4487 19.5 17.7037 19.1699 17.0508 18.5098C16.3979 17.8496 16.0714 17.0964 16.0714 16.25V3.25C16.0714 2.40365 16.3979 1.65039 17.0508 0.990234C17.7037 0.330078 18.4487 0 19.2857 0H41.7857ZM12.8571 16.25C12.8739 17.8919 13.5435 19.3815 14.8661 20.7188C16.1384 22.0052 17.6116 22.6823 19.2857 22.75H28.9286V26C28.9286 26.8294 28.6147 27.5785 27.9869 28.2471C27.3591 28.9157 26.635 29.25 25.8147 29.25H16.1719L6.42857 39V29.25H3.21429C2.37723 29.25 1.63225 28.9199 0.979353 28.2598C0.326451 27.5996 0 26.8464 0 26V13C0 12.1536 0.326451 11.4004 0.979353 10.7402C1.63225 10.0801 2.37723 9.75 3.21429 9.75H12.8571V16.25Z" fill="#14213D"/>
</svg>
