<svg width="42" height="49" viewBox="0 0 42 49" fill="none" xmlns="http://www.w3.org/2000/svg">
<path d="M30.8286 13.2615V10.5642C30.8286 10.317 30.6276 10.1147 30.3819 10.1147H8.93584C8.6901 10.1147 8.48905 10.317 8.48905 10.5642V13.2615C8.48905 13.5087 8.6901 13.711 8.93584 13.711H30.3819C30.6276 13.711 30.8286 13.5087 30.8286 13.2615ZM8.93584 18.2064C8.6901 18.2064 8.48905 18.4087 8.48905 18.656V21.3532C8.48905 21.6005 8.6901 21.8028 8.93584 21.8028H19.2121C19.4578 21.8028 19.6588 21.6005 19.6588 21.3532V18.656C19.6588 18.4087 19.4578 18.2064 19.2121 18.2064H8.93584ZM16.9781 43.6055H4.02113V4.04587H35.2966V23.3761C35.2966 23.6234 35.4976 23.8257 35.7434 23.8257H38.8709C39.1166 23.8257 39.3177 23.6234 39.3177 23.3761V1.79817C39.3177 0.803555 38.5191 0 37.5305 0H1.78717C0.798641 0 0 0.803555 0 1.79817V45.8532C0 46.8478 0.798641 47.6514 1.78717 47.6514H16.9781C17.2238 47.6514 17.4249 47.4491 17.4249 47.2018V44.055C17.4249 43.8078 17.2238 43.6055 16.9781 43.6055ZM41.87 46.4994L36.6593 41.2566C37.9047 39.599 38.6475 37.5311 38.6475 35.289C38.6475 29.8271 34.2466 25.3991 28.8181 25.3991C23.3896 25.3991 18.9887 29.8271 18.9887 35.289C18.9887 40.7509 23.3896 45.1789 28.8181 45.1789C30.8175 45.1789 32.6717 44.5776 34.2243 43.5493L39.5132 48.8708C39.6025 48.9607 39.7142 49 39.8259 49C39.9376 49 40.0549 48.955 40.1387 48.8708L41.87 47.1288C41.9112 47.0875 41.9439 47.0385 41.9662 46.9845C41.9885 46.9305 42 46.8726 42 46.8141C42 46.7556 41.9885 46.6977 41.9662 46.6437C41.9439 46.5897 41.9112 46.5407 41.87 46.4994ZM28.8181 41.5826C25.361 41.5826 22.563 38.7673 22.563 35.289C22.563 31.8107 25.361 28.9954 28.8181 28.9954C32.2751 28.9954 35.0732 31.8107 35.0732 35.289C35.0732 38.7673 32.2751 41.5826 28.8181 41.5826Z" fill="#14213D"/>
</svg>
