<svg width="51" height="70" viewBox="0 0 51 70" fill="none" xmlns="http://www.w3.org/2000/svg">
<path fill-rule="evenodd" clip-rule="evenodd" d="M24.6025 0C13.225 0 4 9.16888 4 20.4796C4 23.4003 4.62812 26.1783 5.73362 28.6922L24.9542 60.3701L43.4713 28.6922C44.6101 26.1144 45.1985 23.3134 45.1965 20.4796C45.1965 9.16888 35.9799 0 24.6025 0ZM24.6025 35.0053C22.9022 35.0025 21.2191 34.6534 19.6495 33.978C18.0798 33.3027 16.6544 32.3143 15.4546 31.0693C14.2549 29.8244 13.3043 28.3473 12.6574 26.7226C12.0104 25.0978 11.6796 23.3572 11.684 21.6003C11.6807 19.8439 12.0123 18.1041 12.6597 16.4801C13.3071 14.8561 14.2578 13.3797 15.4573 12.1354C16.6569 10.891 18.082 9.90295 19.6511 9.22766C21.2202 8.55237 22.9027 8.20305 24.6025 8.19964C28.0353 8.20766 31.3247 9.62361 33.7478 12.1364C36.1709 14.6491 37.5295 18.0531 37.525 21.6003C37.5306 25.1483 36.1725 28.5534 33.7493 31.0671C31.3261 33.5808 28.0361 34.9973 24.6025 35.0053ZM32.8811 21.4272C32.8833 22.5533 32.6708 23.6687 32.2557 24.7098C31.8406 25.751 31.231 26.6974 30.4618 27.495C29.6926 28.2926 28.7789 28.9258 27.7728 29.3584C26.7667 29.7911 25.688 30.0146 24.5983 30.0163C22.3985 30.0106 20.291 29.1027 18.7386 27.4922C17.1863 25.8817 16.3163 23.7003 16.3196 21.4272C16.3179 20.3021 16.5308 19.1877 16.9459 18.1476C17.3611 17.1075 17.9704 16.1621 18.7392 15.3653C19.5079 14.5686 20.421 13.9361 21.4263 13.5039C22.4316 13.0718 23.5094 12.8485 24.5983 12.8468C29.171 12.8468 32.8811 16.6935 32.8811 21.4272Z" fill="#FCA311" fill-opacity="0.8"/>
<path fill-rule="evenodd" clip-rule="evenodd" d="M14.1899 51.2568C7 52.8318 4.01432 54.9 4.01432 57.2236C4.01432 60.5509 11.6816 65.1374 25.4376 65.1374C39.1935 65.1374 46.8608 60.5509 46.8608 57.2236C46.8608 54.9087 43.896 52.901 36.8066 51.2568V47.7088C44.6163 49.2924 50.4327 52.4727 50.4327 57.2236C50.4327 64.0773 37.552 69.209 25.4376 69.209C13.3231 69.209 0.442383 64.0773 0.442383 57.2236C0.442383 52.464 6.2965 49.2232 14.1481 47.6958L14.1899 51.2568Z" fill="#FCA311" fill-opacity="0.8"/>
</svg>
