<svg width="25" height="25" viewBox="0 0 25 25" fill="none" xmlns="http://www.w3.org/2000/svg">
<path d="M13.75 7.5C14.7446 7.5 15.6984 7.89509 16.4017 8.59835C17.1049 9.30161 17.5 10.2554 17.5 11.25C17.5 11.5815 17.6317 11.8995 17.8661 12.1339C18.1005 12.3683 18.4185 12.5 18.75 12.5C19.0815 12.5 19.3995 12.3683 19.6339 12.1339C19.8683 11.8995 20 11.5815 20 11.25C20 9.5924 19.3415 8.00269 18.1694 6.83058C16.9973 5.65848 15.4076 5 13.75 5C13.4185 5 13.1005 5.1317 12.8661 5.36612C12.6317 5.60054 12.5 5.91848 12.5 6.25C12.5 6.58152 12.6317 6.89946 12.8661 7.13388C13.1005 7.3683 13.4185 7.5 13.75 7.5Z" fill="#FCA311"/>
<path d="M13.75 2.5C16.0706 2.5 18.2962 3.42187 19.9372 5.06282C21.5781 6.70376 22.5 8.92936 22.5 11.25C22.5 11.5815 22.6317 11.8995 22.8661 12.1339C23.1005 12.3683 23.4185 12.5 23.75 12.5C24.0815 12.5 24.3995 12.3683 24.6339 12.1339C24.8683 11.8995 25 11.5815 25 11.25C25 8.26631 23.8147 5.40483 21.7049 3.29505C19.5952 1.18526 16.7337 0 13.75 0C13.4185 0 13.1005 0.131696 12.8661 0.366116C12.6317 0.600537 12.5 0.918479 12.5 1.25C12.5 1.58152 12.6317 1.89946 12.8661 2.13388C13.1005 2.3683 13.4185 2.5 13.75 2.5ZM24.6875 17.3875C24.6187 17.1868 24.5001 17.007 24.3426 16.8648C24.1852 16.7227 23.9941 16.6229 23.7875 16.575L16.2875 14.8625C16.0839 14.8163 15.872 14.8219 15.6711 14.8787C15.4703 14.9354 15.2868 15.0416 15.1375 15.1875C14.9625 15.35 14.95 15.3625 14.1375 16.9125C11.4415 15.6702 9.28124 13.5011 8.05 10.8C9.6375 10 9.65 10 9.8125 9.8125C9.95839 9.6632 10.0646 9.47973 10.1213 9.27885C10.1781 9.07798 10.1837 8.86608 10.1375 8.6625L8.425 1.25C8.37706 1.04337 8.27732 0.852339 8.13518 0.694889C7.99304 0.53744 7.81317 0.418753 7.6125 0.35C7.32058 0.245737 7.01914 0.170375 6.7125 0.125C6.39656 0.051744 6.07417 0.00987418 5.75 0C4.225 0 2.76247 0.605802 1.68414 1.68414C0.605802 2.76247 0 4.22501 0 5.75C0.0066149 10.8534 2.03686 15.7459 5.6455 19.3545C9.25414 22.9631 14.1466 24.9934 19.25 25C20.0051 25 20.7528 24.8513 21.4504 24.5623C22.148 24.2733 22.7819 23.8498 23.3159 23.3159C23.8498 22.7819 24.2733 22.1481 24.5623 21.4504C24.8513 20.7528 25 20.0051 25 19.25C25.0004 18.9318 24.9753 18.6142 24.925 18.3C24.8725 17.9895 24.793 17.6842 24.6875 17.3875Z" fill="#FCA311"/>
</svg>
