<svg width="49" height="42" viewBox="0 0 49 42" fill="none" xmlns="http://www.w3.org/2000/svg">
<path d="M0 21C0 26.5695 2.21249 31.911 6.15076 35.8492C10.089 39.7875 15.4305 42 21 42C26.5767 42 31.92 39.8067 35.9333 35.9333L32.4333 32.4333C30.9638 33.9883 29.191 35.2255 27.2245 36.0683C25.258 36.9111 23.1395 37.3416 21 37.3333C6.44 37.3333 -0.839999 19.74 9.45 9.45C19.74 -0.839999 37.3333 6.46333 37.3333 21H30.3333L39.6667 30.3333H39.9L49 21H42C42 15.4305 39.7875 10.089 35.8492 6.15076C31.911 2.21249 26.5695 0 21 0C15.4305 0 10.089 2.21249 6.15076 6.15076C2.21249 10.089 0 15.4305 0 21Z" fill="#14213D"/>
</svg>
