<svg width="62" height="50" viewBox="0 0 62 50" fill="none" xmlns="http://www.w3.org/2000/svg">
<path fill-rule="evenodd" clip-rule="evenodd" d="M36.111 11.1111C35.3743 11.1111 34.6678 11.4037 34.1468 11.9247C33.6259 12.4456 33.3333 13.1521 33.3333 13.8889V36.1111C33.3333 36.8478 33.6259 37.5543 34.1468 38.0753C34.6678 38.5962 35.3743 38.8889 36.111 38.8889H47.2221C47.9589 38.8889 48.6654 38.5962 49.1863 38.0753C49.7073 37.5543 49.9999 36.8478 49.9999 36.1111V13.8889C49.9999 13.1521 49.7073 12.4456 49.1863 11.9247C48.6654 11.4037 47.9589 11.1111 47.2221 11.1111H36.111ZM44.4444 16.6666H38.8888V33.3333H44.4444V16.6666Z" fill="#14213D"/>
<path d="M13.8889 11.1111C13.1521 11.1111 12.4456 11.4037 11.9247 11.9247C11.4037 12.4456 11.1111 13.1521 11.1111 13.8889C11.1111 14.6256 11.4037 15.3321 11.9247 15.853C12.4456 16.374 13.1521 16.6666 13.8889 16.6666H25C25.7367 16.6666 26.4432 16.374 26.9642 15.853C27.4851 15.3321 27.7778 14.6256 27.7778 13.8889C27.7778 13.1521 27.4851 12.4456 26.9642 11.9247C26.4432 11.4037 25.7367 11.1111 25 11.1111H13.8889Z" fill="#14213D"/>
<path d="M13.8889 22.2222C13.1521 22.2222 12.4456 22.5148 11.9247 23.0358C11.4037 23.5567 11.1111 24.2632 11.1111 24.9999C11.1111 25.7367 11.4037 26.4432 11.9247 26.9641C12.4456 27.4851 13.1521 27.7777 13.8889 27.7777H25C25.7367 27.7777 26.4432 27.4851 26.9642 26.9641C27.4851 26.4432 27.7778 25.7367 27.7778 24.9999C27.7778 24.2632 27.4851 23.5567 26.9642 23.0358C26.4432 22.5148 25.7367 22.2222 25 22.2222H13.8889Z" fill="#14213D"/>
<path d="M11.1111 36.111C11.1111 35.3743 11.4037 34.6678 11.9247 34.1468C12.4456 33.6259 13.1521 33.3333 13.8889 33.3333H25C25.7367 33.3333 26.4432 33.6259 26.9642 34.1468C27.4851 34.6678 27.7778 35.3743 27.7778 36.111C27.7778 36.8477 27.4851 37.5543 26.9642 38.0752C26.4432 38.5962 25.7367 38.8888 25 38.8888H13.8889C13.1521 38.8888 12.4456 38.5962 11.9247 38.0752C11.4037 37.5543 11.1111 36.8477 11.1111 36.111Z" fill="#14213D"/>
<path fill-rule="evenodd" clip-rule="evenodd" d="M8.33333 0C6.1232 0 4.00358 0.877974 2.44078 2.44078C0.877974 4.00358 0 6.1232 0 8.33333V41.6667C0 43.8768 0.877974 45.9964 2.44078 47.5592C4.00358 49.122 6.1232 50 8.33333 50H52.7778C54.9879 50 57.1075 49.122 58.6703 47.5592C60.2331 45.9964 61.1111 43.8768 61.1111 41.6667V8.33333C61.1111 6.1232 60.2331 4.00358 58.6703 2.44078C57.1075 0.877974 54.9879 0 52.7778 0H8.33333ZM52.7778 5.55556H8.33333C7.59662 5.55556 6.89008 5.84821 6.36915 6.36915C5.84821 6.89008 5.55556 7.59662 5.55556 8.33333V41.6667C5.55556 42.4034 5.84821 43.1099 6.36915 43.6309C6.89008 44.1518 7.59662 44.4444 8.33333 44.4444H52.7778C53.5145 44.4444 54.221 44.1518 54.742 43.6309C55.2629 43.1099 55.5556 42.4034 55.5556 41.6667V8.33333C55.5556 7.59662 55.2629 6.89008 54.742 6.36915C54.221 5.84821 53.5145 5.55556 52.7778 5.55556Z" fill="#14213D"/>
</svg>
